<svg id="Layer_2" data-name="Layer 2" xmlns="http://www.w3.org/2000/svg" viewBox="0 0 546.39 318.05"><defs><style>.cls-1,.cls-4{fill:#4f7bac;}.cls-2{fill:#5059ab;}.cls-3{fill:#fff;}.cls-4{fill-rule:evenodd;}</style></defs><path class="cls-1" d="M546.39,0,512.32,26.81,526.7,28.3c-40.14,67.93-90.83,123-150.74,163.8-49.39,33.63-105.13,57.69-165.7,71.51C116.57,285,39.93,275,25.9,272.8a13,13,0,1,0-1.33,6.88c7.13,1.1,31,4.35,65.37,4.35a552,552,0,0,0,121.6-13.53C273,256.5,329.6,232.11,379.75,198c60.9-41.42,112.38-97.37,153.1-166.33l9,11.45ZM13,279.85a6,6,0,1,1,6-6A6,6,0,0,1,13,279.85Z"/><path class="cls-2" d="M534.39,84.9a42.24,42.24,0,1,1-42.24-42.25A42.24,42.24,0,0,1,534.39,84.9Z"/><circle class="cls-3" cx="492.15" cy="84.9" r="34.69" transform="matrix(0.07, -1, 1, 0.07, 372.58, 569.79)"/><path class="cls-2" d="M518.24,132l-9-5.6a41.7,41.7,0,0,0,10.59-6l-.35,11A.78.78,0,0,1,518.24,132Z"/><rect class="cls-1" x="475.29" y="95.6" width="34.14" height="1.64"/><polygon class="cls-1" points="506.84 73.53 507.42 74.34 495.93 82.24 489.06 72.55 473.51 83.38 473.51 85.14 488.73 74.54 495.59 84.17 508.24 75.51 508.82 76.33 510.79 72.82 506.84 73.53"/><polygon class="cls-1" points="475.55 94.26 481.24 94.26 481.24 80.94 475.55 85.02 475.55 94.26"/><polygon class="cls-1" points="507.94 77.39 502.86 80.99 502.86 94.26 508.55 94.26 508.55 78.25 507.94 77.39"/><polygon class="cls-1" points="496.03 85.41 496.03 94.26 501.72 94.26 501.72 81.39 496.05 85.4 496.03 85.41"/><polygon class="cls-1" points="482.38 80.54 482.38 94.26 488.06 94.26 488.06 76.46 482.38 80.54"/><polygon class="cls-1" points="489.2 77.29 489.2 94.26 494.89 94.26 494.89 85.55 489.2 77.29"/><path class="cls-2" d="M151.14,275.81a42.24,42.24,0,1,1-42.24-42.24A42.24,42.24,0,0,1,151.14,275.81Z"/><circle class="cls-3" cx="108.9" cy="275.81" r="34.69" transform="translate(-184.55 318.43) rotate(-76.72)"/><path class="cls-2" d="M143.79,317.55l-9.93-3.81a40.37,40.37,0,0,0,4.07-2.91,42.53,42.53,0,0,0,5.19-5l1.73,10.87A.79.79,0,0,1,143.79,317.55Z"/><path class="cls-4" d="M102.85,278.45a6.05,6.05,0,1,1,5.51,6.55,6.07,6.07,0,0,1-5.51-6.55ZM122,268.34l-1.79-1.94a.09.09,0,0,0-.11,0l-1.34,1.24a15.09,15.09,0,0,0-7-3.48v-2.63a.18.18,0,0,0-.18-.18h-5.25a.18.18,0,0,0-.18.18v2.57a15.06,15.06,0,0,0-7.23,3.43l-1.12-1a.08.08,0,0,0-.11,0l-1.79,1.95a.08.08,0,0,0,0,.11l1.07,1a15.15,15.15,0,1,0,23.75.12l1.31-1.21a.07.07,0,0,0,0-.11Zm-13.24-3.11A13.78,13.78,0,1,0,122.5,279a13.78,13.78,0,0,0-13.77-13.78Zm15.84,1.48a.43.43,0,0,1,0,.6l-1.35,1.25a.44.44,0,0,1-.61,0l-2.53-2.75a.43.43,0,0,1,0-.6l1.35-1.25a.43.43,0,0,1,.6,0l2.54,2.75Zm-31.35.09,2.54-2.74a.43.43,0,0,1,.61,0l1.35,1.25a.44.44,0,0,1,0,.61l-2.54,2.74a.43.43,0,0,1-.6,0l-1.35-1.24a.43.43,0,0,1,0-.61Zm10.89-9.33h9.51a.46.46,0,0,1,.46.45v2.58a.46.46,0,0,1-.46.45h-9.51a.45.45,0,0,1-.45-.45v-2.58a.45.45,0,0,1,.45-.45Zm2.77,21.28a1.9,1.9,0,1,0,2.05-1.73,1.9,1.9,0,0,0-2.05,1.73Zm-7.63-2.06-1.54.22a.16.16,0,0,0-.14.16l-.15,1.72a.18.18,0,0,0,.12.19l1.46.47a9.64,9.64,0,0,0,.41,2.35l-1.18.93a.16.16,0,0,0,0,.21l.73,1.57a.16.16,0,0,0,.19.1l1.47-.31a9.82,9.82,0,0,0,1.55,1.85l-.54,1.37a.18.18,0,0,0,.06.21l1.42,1a.18.18,0,0,0,.22,0l1.08-1a10.09,10.09,0,0,0,2.31.83l.21,1.43a.15.15,0,0,0,.15.14l1.73.15a.17.17,0,0,0,.18-.12l.45-1.37a9.32,9.32,0,0,0,2.42-.44l.89,1.13a.17.17,0,0,0,.21,0l1.57-.73a.16.16,0,0,0,.09-.19l-.3-1.42a9.84,9.84,0,0,0,1.87-1.59l1.34.53a.17.17,0,0,0,.21-.06l1-1.42a.18.18,0,0,0,0-.22l-1-1.09a10.35,10.35,0,0,0,.8-2.29l1.46-.21a.19.19,0,0,0,.15-.16l.15-1.73a.18.18,0,0,0-.12-.18l-1.44-.47a9.67,9.67,0,0,0-.44-2.35l1.19-.94a.18.18,0,0,0,0-.21l-.74-1.56a.16.16,0,0,0-.19-.1l-1.52.32a10,10,0,0,0-1.53-1.78l.58-1.45A.18.18,0,0,0,116,270l-1.42-1a.17.17,0,0,0-.21,0l-1.18,1.06a10.15,10.15,0,0,0-2.19-.77l-.23-1.57a.18.18,0,0,0-.16-.15l-1.72-.15a.18.18,0,0,0-.18.12l-.5,1.53a9.9,9.9,0,0,0-2.27.41l-1-1.25a.19.19,0,0,0-.21-.05l-1.57.74a.17.17,0,0,0-.1.19l.33,1.57a10.51,10.51,0,0,0-1.77,1.49l-1.47-.59a.18.18,0,0,0-.21.07l-1,1.42a.17.17,0,0,0,0,.21l1,1.18a9.62,9.62,0,0,0-.8,2.2Zm2.47,1.64a7.16,7.16,0,1,0,7.74-6.52A7.15,7.15,0,0,0,101.72,278.33Z"/><path class="cls-2" d="M363.24,226.21A42.24,42.24,0,1,1,321,184,42.24,42.24,0,0,1,363.24,226.21Z"/><circle class="cls-3" cx="321" cy="226.21" r="34.69" transform="translate(57.27 517.16) rotate(-82.98)"/><path class="cls-2" d="M279.17,190.57l10.3,2.64a42,42,0,0,0-3.71,3.37,41.29,41.29,0,0,0-4.59,5.56l-2.95-10.6A.78.78,0,0,1,279.17,190.57Z"/><path class="cls-1" d="M324.92,234.83a.13.13,0,0,0-.14-.13h-.16c1.57-6,7.42-8,7.1-14.73-.27-5.69-4.53-10.62-10.72-10.61s-10.44,4.87-10.72,10.61c-.29,6.21,4.56,8.32,6.61,13.26a10.57,10.57,0,0,1,.5,1.47h-.16a.13.13,0,0,0-.13.13v1.86h7.82Zm-2.17-1.43v-4.83a.82.82,0,0,0-.09-.38c.7-2.34,2-6.69,2.34-7.85,1.26-.05,2.74-.08,3.29-.91.86-1.3-1.15-3.12-2.52-2.41-.86.45-1.11,1.69-1.34,2.59-1.54,0-5.34,0-6.88,0-.24-.94-.67-3.38-2.73-2.59a1.76,1.76,0,0,0-1.12,2.42c.54.83,2,.86,3.28.9.9,3,1.39,4.67,2.36,7.88a.85.85,0,0,0-.08.35v4.83h-.91a19.19,19.19,0,0,0-3.52-5.72c-2-2.49-3.41-4.38-3.25-7.64a10.15,10.15,0,0,1,2.8-6.63,9,9,0,0,1,6.62-2.76,9.22,9.22,0,0,1,5.31,1.64,10,10,0,0,1,4.12,7.74c.16,3.35-1.43,5.35-3.27,7.67a19.39,19.39,0,0,0-3.49,5.7Zm-2.36-10.62a.62.62,0,0,0,.21.45v4.54H320c-.53-1.76-1.9-6.37-2.21-7.41,1.15,0,5.31,0,6.44,0-.36,1.24-1.53,5.15-2.2,7.41h-.61v-4.54a.59.59,0,0,0,.21-.45.61.61,0,0,0-.61-.61A.61.61,0,0,0,320.39,222.78Zm4.82-3.21c.24-.95.5-2,1.22-2,.92,0,1.51,1,1.23,1.41s-1.8.53-2.45.57ZM314.32,219c-.43-.64.84-1.7,1.55-1.33.49.25.72,1.16.9,1.88C316.81,219.71,314.63,219.5,314.32,219Z"/><rect class="cls-1" x="317.1" y="237.45" width="7.82" height="0.97"/><path class="cls-1" d="M324.37,240.15h.27a.28.28,0,0,0,.28-.26v-.72H317.1v.72a.27.27,0,0,0,.28.26h.26c.69,1.41,1.29,2.91,2.81,2.91h1.12C323.13,243.06,323.68,241.56,324.37,240.15Z"/></svg>